<?xml version="1.0" encoding="UTF-8" standalone="no"?><!DOCTYPE svg PUBLIC "-//W3C//DTD SVG 1.1//EN" "http://www.w3.org/Graphics/SVG/1.1/DTD/svg11.dtd"><svg width="100%" height="100%" viewBox="0 0 842 97" version="1.1" xmlns="http://www.w3.org/2000/svg" xmlns:xlink="http://www.w3.org/1999/xlink" xml:space="preserve" xmlns:serif="http://www.serif.com/" style="fill-rule:evenodd;clip-rule:evenodd;"><path id="Left-Header" serif:id="Left Header" d="M3.772,66.009l13.031,-0l-0,-22.701c-0,-0 0.96,1.989 1.989,3.36l14.128,19.341l11.316,-0l-0,-44.442l-13.031,0l0,23.044c0,-0 -0.96,-1.989 -1.989,-3.361l-14.128,-19.683l-11.316,0l0,44.442Z" style="fill:#0b3e61;fill-rule:nonzero;"/><path d="M79.624,66.832c14.266,-0 23.867,-10.219 23.867,-23.044c0,-12.688 -9.601,-22.907 -23.867,-22.907c-14.265,0 -23.798,10.219 -23.798,22.907c0,12.825 9.533,23.044 23.798,23.044Zm0,-11.796c-5.966,-0 -10.218,-4.664 -10.218,-11.248c-0,-6.447 4.595,-11.11 10.218,-11.11c6.036,-0 10.288,4.663 10.288,11.11c-0,6.584 -4.252,11.248 -10.288,11.248Z" style="fill:#0b3e61;fill-rule:nonzero;"/><path d="M115.082,66.009l13.03,-0l0,-9.328l5.35,0c1.097,0 1.852,-0.068 3.223,-0.205l5.075,9.533l14.883,-0l-8.299,-13.237c4.664,-3.223 6.996,-8.504 6.996,-13.648c-0,-9.67 -6.996,-17.557 -20.644,-17.557l-19.614,0l-0,44.442Zm19.752,-20.369l-6.722,-0l0,-13.031l6.79,-0c3.909,-0 6.653,2.88 6.653,6.515c-0,3.567 -2.675,6.516 -6.721,6.516Z" style="fill:#0b3e61;fill-rule:nonzero;"/><path d="M178.178,66.009l13.031,-0l-0,-33.4l13.922,-0l-0,-11.042l-40.875,0l-0,11.042l13.922,-0l-0,33.4Z" style="fill:#0b3e61;fill-rule:nonzero;"/><path d="M215.693,66.009l13.03,-0l0,-16.803l13.374,-0l-0,16.803l13.031,-0l-0,-44.442l-13.031,0l-0,16.597l-13.374,0l0,-16.597l-13.03,0l-0,44.442Z" style="fill:#0b3e61;fill-rule:nonzero;"/><path d="M285.167,66.832c9.19,-0 18.929,-4.047 18.929,-14.197c-0,-11.385 -12.277,-14.059 -18.929,-15.5c-2.332,-0.548 -3.978,-1.234 -3.978,-2.811c0,-1.784 2.88,-2.058 3.978,-2.058c4.321,0 10.219,1.44 12.825,3.223l4.389,-10.081c-4.526,-2.675 -9.876,-4.527 -17.214,-4.527c-9.122,0 -17.557,4.184 -17.557,13.443c-0,10.013 8.984,13.305 17.557,15.225c2.537,0.617 5.349,0.96 5.349,3.086c0,2.332 -3.978,2.743 -5.349,2.743c-7.133,0 -11.042,-2.126 -14.471,-4.046l-4.252,10.15c1.371,0.549 6.241,5.35 18.723,5.35Z" style="fill:#0b3e61;fill-rule:nonzero;"/><path d="M326.454,66.009l13.03,-0l0,-33.4l13.923,-0l-0,-11.042l-40.876,0l0,11.042l13.923,-0l-0,33.4Z" style="fill:#0b3e61;fill-rule:nonzero;"/><path d="M386.052,66.832c14.265,-0 23.867,-10.219 23.867,-23.044c-0,-12.688 -9.602,-22.907 -23.867,-22.907c-14.265,0 -23.798,10.219 -23.798,22.907c-0,12.825 9.533,23.044 23.798,23.044Zm-0,-11.796c-5.967,-0 -10.219,-4.664 -10.219,-11.248c0,-6.447 4.595,-11.11 10.219,-11.11c6.035,-0 10.287,4.663 10.287,11.11c0,6.584 -4.252,11.248 -10.287,11.248Z" style="fill:#0b3e61;fill-rule:nonzero;"/><path d="M428.093,66.009l13.648,-0l6.035,-24.073l1.029,-4.458l1.029,4.458l6.035,24.073l13.717,-0l11.247,-44.442l-12.825,0l-5.349,24.896l-0.755,3.429l-0.823,-3.429l-5.761,-24.896l-12.962,0l-5.829,24.896l-0.823,3.429l-0.686,-3.429l-4.801,-24.896l-13.373,0l11.247,44.442Z" style="fill:#0b3e61;fill-rule:nonzero;"/><path d="M490.572,66.009l36.143,-0l0,-11.042l-23.112,-0l-0,-6.035l21.397,-0l0,-10.905l-21.397,0l-0,-5.418l22.289,-0l0,-11.042l-35.32,0l-0,44.442Z" style="fill:#0b3e61;fill-rule:nonzero;"/><g><g><path d="M575.845,18.32c-0.543,0.593 -0.6,1.229 -0.712,2.919c-0.106,1.689 0.122,2.727 0.17,5.532c0.055,2.803 0.092,4.644 0.083,8.493c-0.001,3.848 -0.056,6.192 -0.103,10.753c-0.047,4.561 -0.061,7.221 -0.123,12.05c-0.055,4.829 -0.122,7.594 -0.167,12.087c-0.051,4.493 -0.037,6.879 -0.069,10.376c-0.024,3.498 -0.236,5.083 -0.062,7.102c0.174,2.019 0.407,2.725 0.928,2.988c0.514,0.263 1.429,-0.108 1.656,-1.665c0.227,-1.561 -0.267,-2.909 -0.528,-6.132c-0.262,-3.228 -0.515,-5.432 -0.78,-9.998c-0.265,-4.565 -0.411,-7.456 -0.558,-12.824c-0.146,-5.367 -0.169,-8.488 -0.166,-14.005c-0.004,-5.518 0.037,-8.472 0.166,-13.586c0.136,-5.111 0.253,-7.718 0.485,-11.981c0.232,-4.259 0.405,-6.432 0.676,-9.321c0.277,-2.886 0.783,-4.13 0.704,-5.11c-0.078,-0.985 -1.262,-0.863 -1.085,0.195c0.169,1.055 0.886,2.171 1.954,5.09c1.062,2.915 1.741,5.159 3.381,9.488c1.639,4.33 2.625,7.101 4.809,12.159c2.19,5.052 3.492,7.994 6.124,13.119c2.632,5.121 4.106,7.864 7.03,12.495c2.923,4.625 4.603,6.99 7.594,10.642c2.985,3.654 4.563,5.282 7.353,7.614c2.79,2.337 4.019,3.291 6.593,4.063c2.573,0.771 4.323,0.811 6.275,-0.198c1.958,-1.014 2.53,-2.161 3.502,-4.863c0.978,-2.703 1.077,-4.596 1.362,-8.646c0.293,-4.05 0.213,-6.64 0.08,-11.609c-0.139,-4.965 -0.388,-8.002 -0.757,-13.227c-0.368,-5.226 -0.68,-8.114 -1.099,-12.903c-0.418,-4.784 -0.579,-7.284 -0.987,-11.033c-0.409,-3.748 -0.608,-5.54 -1.057,-7.702c-0.456,-2.166 -0.738,-2.533 -1.208,-3.122c-0.47,-0.589 -1.025,-0.488 -1.14,0.178c-0.115,0.662 0.212,0.988 0.568,3.148c0.355,2.159 0.724,3.914 1.211,7.641c0.494,3.73 0.759,6.223 1.23,10.999c0.465,4.777 0.776,7.666 1.118,12.885c0.335,5.219 0.551,8.258 0.577,13.209c0.032,4.95 0,7.552 -0.435,11.54c-0.43,3.983 -0.817,5.92 -1.725,8.385c-0.908,2.46 -1.532,3.126 -2.816,3.925c-1.283,0.804 -1.623,0.767 -3.595,0.083c-1.966,-0.689 -3.505,-1.338 -6.258,-3.507c-2.753,-2.17 -4.475,-3.767 -7.513,-7.34c-3.038,-3.569 -4.738,-5.923 -7.679,-10.518c-2.941,-4.591 -4.421,-7.329 -7.019,-12.436c-2.591,-5.111 -3.893,-8.048 -5.958,-13.113c-2.072,-5.061 -2.927,-7.846 -4.382,-12.2c-1.462,-4.354 -1.956,-6.589 -2.922,-9.566c-0.967,-2.976 -0.876,-4.299 -1.917,-5.317c-1.048,-1.017 -2.541,-0.88 -3.308,0.233c-0.766,1.113 -0.375,2.404 -0.524,5.336c-0.148,2.937 -0.105,5.074 -0.205,9.337c-0.105,4.267 -0.216,6.87 -0.305,11.986c-0.096,5.116 -0.137,8.075 -0.159,13.598c-0.022,5.523 -0.006,8.644 0.042,14.018c0.047,5.378 0.108,8.279 0.182,12.858c0.081,4.581 0.162,6.797 0.213,10.039c0.051,3.238 -0.333,4.635 0.047,6.16c0.373,1.525 1.331,1.789 1.839,1.466c0.501,-0.322 0.645,-1.05 0.682,-3.074c0.043,-2.029 -0.338,-3.579 -0.471,-7.062c-0.133,-3.482 -0.187,-5.866 -0.194,-10.351c-0.015,-4.488 0.051,-7.258 0.133,-12.084c0.076,-4.826 0.116,-7.488 0.262,-12.047c0.146,-4.563 0.281,-6.908 0.474,-10.76c0.2,-3.853 0.321,-5.701 0.511,-8.512c0.19,-2.812 0.431,-3.856 0.432,-5.538c-0,-1.686 0.057,-2.31 -0.431,-2.877c-0.494,-0.565 -1.479,-0.551 -2.029,0.038" style="fill:#0b3e61;fill-rule:nonzero;stroke:#0b3e61;stroke-width:2.11px;"/><path d="M645.125,51.95c0.972,0.088 2.247,0.144 3.893,-0.676c1.647,-0.819 2.496,-1.678 4.346,-3.42c1.844,-1.741 3.099,-2.968 4.897,-5.288c1.798,-2.316 2.717,-3.825 4.087,-6.308c1.363,-2.482 2.009,-3.923 2.757,-6.101c0.755,-2.174 1.291,-3.276 1.005,-4.781c-0.286,-1.51 -0.964,-2.251 -2.421,-2.753c-1.45,-0.506 -3.1,-0.621 -4.85,0.239c-1.743,0.855 -2.501,1.9 -3.893,4.048c-1.393,2.149 -2.086,3.661 -3.056,6.686c-0.963,3.02 -1.44,5.01 -1.774,8.431c-0.334,3.424 -0.362,5.49 0.109,8.687c0.472,3.192 0.878,4.915 2.234,7.288c1.357,2.373 2.24,3.508 4.549,4.577c2.315,1.069 4.103,1.285 7.002,0.769c2.891,-0.516 4.507,-1.401 7.468,-3.348c2.968,-1.948 4.527,-3.48 7.358,-6.391c2.825,-2.911 4.32,-4.901 6.791,-8.158c2.47,-3.253 3.703,-5.318 5.555,-8.109c1.853,-2.791 2.964,-4.301 3.701,-5.841c0.738,-1.54 0.243,-2.025 -0.011,-1.86c-0.247,0.165 -0.913,0.906 -1.238,2.682c-0.331,1.776 -0.379,3.44 -0.414,6.195c-0.035,2.751 -0.064,4.702 0.24,7.566c0.304,2.864 0.478,4.479 1.272,6.758c0.8,2.278 1.146,3.385 2.725,4.63c1.572,1.246 2.973,1.709 5.157,1.597c2.184,-0.111 3.59,-0.757 5.754,-2.155c2.164,-1.397 3.177,-2.59 5.066,-4.836c1.889,-2.245 2.827,-3.867 4.386,-6.388c1.553,-2.524 2.427,-4.209 3.392,-6.219c0.971,-2.006 1.401,-3.011 1.447,-3.813c0.039,-0.801 -1.002,-0.821 -1.244,-0.189c-0.243,0.632 -0.314,1.546 0.025,3.354c0.339,1.808 0.701,3.364 1.663,5.687c0.97,2.322 1.652,3.827 3.156,5.923c1.51,2.099 2.369,3.163 4.376,4.571c2.013,1.407 3.222,2.066 5.685,2.471c2.47,0.4 4.126,0.323 6.656,-0.457c2.522,-0.784 3.869,-1.63 5.979,-3.453c2.109,-1.823 3.108,-3.112 4.566,-5.673c1.457,-2.561 2.047,-4.248 2.734,-7.136c0.682,-2.887 0.783,-4.635 0.678,-7.304c-0.111,-2.664 -0.447,-4.026 -1.224,-6.039c-0.783,-2.012 -1.356,-2.963 -2.678,-4.026c-1.315,-1.068 -2.643,-1.119 -3.926,-1.306c-1.29,-0.185 -1.971,0.123 -2.491,0.366c-0.52,0.239 -0.378,0.586 -0.116,0.841c0.268,0.253 0.754,0.098 1.452,0.429c0.697,0.332 1.057,0.363 2.034,1.224c0.984,0.864 2.01,1.357 2.874,3.091c0.87,1.735 1.297,3.07 1.471,5.581c0.175,2.516 0.064,4.239 -0.613,6.986c-0.684,2.747 -1.349,4.384 -2.793,6.748c-1.445,2.361 -2.566,3.514 -4.429,5.057c-1.856,1.543 -3.033,2.063 -4.86,2.66c-1.834,0.594 -2.567,0.613 -4.288,0.312c-1.715,-0.298 -2.664,-0.625 -4.297,-1.799c-1.628,-1.174 -2.578,-2.117 -3.853,-4.067c-1.275,-1.953 -1.726,-3.448 -2.512,-5.698c-0.779,-2.254 -0.761,-3.776 -1.39,-5.565c-0.629,-1.788 -0.732,-2.733 -1.742,-3.383c-1.016,-0.646 -2.229,-0.667 -3.34,0.146c-1.111,0.809 -1.184,1.897 -2.228,3.908c-1.037,2.014 -1.52,3.707 -2.978,6.157c-1.465,2.451 -2.525,4.026 -4.333,6.1c-1.808,2.074 -3.057,3.092 -4.706,4.273c-1.649,1.176 -2.345,1.468 -3.539,1.62c-1.195,0.152 -1.452,0.076 -2.435,-0.869c-0.99,-0.945 -1.768,-1.798 -2.508,-3.864c-0.747,-2.065 -0.988,-3.689 -1.213,-6.473c-0.232,-2.779 -0.043,-4.712 0.067,-7.433c0.109,-2.721 0.65,-4.342 0.475,-6.174c-0.175,-1.827 -0.452,-2.705 -1.344,-2.977c-0.892,-0.276 -1.814,0.096 -3.11,1.61c-1.289,1.513 -1.624,3.145 -3.356,5.949c-1.733,2.804 -2.88,4.864 -5.3,8.071c-2.414,3.207 -3.985,5.168 -6.784,7.962c-2.799,2.795 -4.495,4.25 -7.204,6.015c-2.709,1.761 -4.114,2.339 -6.327,2.801c-2.22,0.467 -3.013,0.379 -4.752,-0.477c-1.738,-0.857 -2.706,-1.672 -3.954,-3.814c-1.249,-2.142 -1.825,-3.828 -2.288,-6.898c-0.463,-3.074 -0.461,-5.13 -0.047,-8.454c0.42,-3.324 0.997,-5.295 2.129,-8.165c1.126,-2.87 2.121,-4.334 3.506,-6.193c1.385,-1.86 2.538,-2.34 3.407,-3.103c0.876,-0.764 0.739,-0.929 0.952,-0.713c0.213,0.21 0.178,0.574 0.126,1.779c-0.053,1.202 0.187,2.214 -0.387,4.227c-0.567,2.017 -1.145,3.483 -2.47,5.848c-1.325,2.365 -2.299,3.827 -4.148,5.977c-1.856,2.149 -3.244,3.278 -5.11,4.779c-1.859,1.5 -2.967,1.859 -4.207,2.727c-1.239,0.869 -1.801,1.072 -2.003,1.621c-0.202,0.548 0.009,1.031 0.982,1.123" style="fill:#0b3e61;fill-rule:nonzero;stroke:#0b3e61;stroke-width:2.11px;"/><path d="M788.764,19.911c-0.337,-0.487 -0.817,-0.824 -2.167,-1.117c-1.343,-0.292 -2.471,-0.535 -4.557,-0.35c-2.08,0.186 -3.559,0.539 -5.86,1.279c-2.3,0.735 -3.723,1.238 -5.644,2.407c-1.915,1.172 -3.035,1.935 -3.941,3.444c-0.906,1.505 -1.137,2.505 -0.581,4.091c0.556,1.585 1.456,2.379 3.367,3.832c1.917,1.452 3.396,2.088 6.206,3.425c2.81,1.342 4.707,1.997 7.857,3.273c3.157,1.276 5.137,1.888 7.907,3.117c2.769,1.23 4.25,1.896 5.935,3.036c1.678,1.141 2.131,1.689 2.475,2.668c0.337,0.984 0.269,1.261 -0.784,2.24c-1.053,0.979 -2.083,1.625 -4.489,2.661c-2.407,1.031 -4.292,1.65 -7.558,2.505c-3.267,0.851 -5.457,1.264 -8.773,1.762c-3.31,0.496 -5.368,0.6 -7.796,0.719c-2.428,0.124 -3.481,0.109 -4.344,-0.118c-0.869,-0.226 -0.728,-0.1 0.012,-1.016c0.733,-0.915 1.3,-1.845 3.668,-3.553c2.368,-1.713 4.278,-2.957 8.173,-4.997c3.902,-2.04 6.502,-3.25 11.33,-5.198c4.835,-1.95 7.759,-2.965 12.824,-4.547c5.057,-1.586 7.822,-2.31 12.484,-3.373c4.662,-1.067 7.007,-1.436 10.832,-1.954c3.831,-0.519 5.67,-0.54 8.311,-0.644c2.634,-0.099 3.44,0.17 4.881,0.133c1.447,-0.037 1.74,-0.209 2.335,-0.313c0.589,-0.103 0.424,-0.096 0.622,-0.207c0.205,-0.107 0.395,-0.137 0.388,-0.34c-0.014,-0.203 0.159,-0.393 -0.443,-0.68c-0.602,-0.291 -0.978,-0.669 -2.56,-0.772c-1.589,-0.102 -2.576,-0.015 -5.364,0.26c-2.789,0.271 -4.657,0.447 -8.572,1.107c-3.914,0.661 -6.277,1.065 -11.007,2.2c-4.736,1.14 -7.514,1.873 -12.656,3.478c-5.143,1.604 -8.094,2.617 -13.062,4.541c-4.969,1.924 -7.646,3.08 -11.775,5.088c-4.129,2.004 -6.146,3.124 -8.878,4.946c-2.731,1.822 -4.111,2.67 -4.773,4.154c-0.656,1.484 -0.022,2.456 1.482,3.269c1.504,0.813 3.147,0.827 6.037,0.791c2.891,-0.036 4.885,-0.406 8.415,-0.969c3.537,-0.559 5.742,-0.948 9.251,-1.836c3.509,-0.888 5.499,-1.416 8.299,-2.605c2.794,-1.189 4.297,-1.871 5.676,-3.335c1.379,-1.46 1.669,-2.465 1.218,-3.972c-0.452,-1.508 -1.479,-2.225 -3.489,-3.573c-2.009,-1.344 -3.648,-1.898 -6.559,-3.156c-2.904,-1.259 -4.882,-1.849 -7.987,-3.137c-3.098,-1.288 -4.932,-1.986 -7.515,-3.309c-2.591,-1.318 -3.883,-2.034 -5.416,-3.291c-1.534,-1.257 -1.942,-1.909 -2.259,-2.992c-0.31,-1.084 -0.041,-1.506 0.68,-2.42c0.719,-0.919 1.44,-1.43 2.92,-2.166c1.48,-0.731 2.66,-1.107 4.487,-1.505c1.834,-0.395 3.04,-0.271 4.661,-0.481c1.621,-0.206 2.335,-0.326 3.458,-0.562c1.116,-0.236 1.613,-0.231 2.136,-0.618c0.524,-0.388 0.819,-0.832 0.482,-1.32" style="fill:#0b3e61;fill-rule:nonzero;stroke:#0b3e61;stroke-width:2.11px;"/></g></g></svg>